<?xml version="1.0" encoding="UTF-8"?>
<svg xmlns="http://www.w3.org/2000/svg" xmlns:xlink="http://www.w3.org/1999/xlink" width="1000pt" height="701pt" viewBox="0 0 1000 701" version="1.1">
<g id="surface61">
<path style="fill-rule:nonzero;fill:rgb(0%,0%,0%);fill-opacity:1;stroke-width:2;stroke-linecap:round;stroke-linejoin:round;stroke:rgb(0%,0%,0%);stroke-opacity:1;stroke-miterlimit:10;" d="M -698.40844 -3.043456 C -696.057525 -9.591369 -694.235341 -17.226618 -692.269772 -26.905102 C -690.480447 -35.699379 -690.72241 -48.042434 -691.236206 -57.341546 C -697.21954 -135.608819 -706.578396 -255.135113 -709.290761 -291.438391 C -710.951637 -296.104376 -713.15618 -299.957847 -714.59003 -305.406475 L -726.069787 -277.691358 C -724.026552 -273.709439 -723.154293 -268.69694 -721.493418 -264.030955 C -718.778065 -227.727677 -708.94126 -107.99228 -702.474001 -29.527852 C -701.930333 -22.454194 -701.885526 -17.471567 -701.565897 -11.855657 C -700.822087 1.171464 -700.804164 3.558226 -699.203032 -0.722413 Z M -698.40844 -3.043456 " transform="matrix(1.307669,0,0,1.307669,1803.4196,625.28452)"/>
<path style="fill-rule:nonzero;fill:rgb(0%,0%,0%);fill-opacity:1;stroke-width:2;stroke-linecap:round;stroke-linejoin:round;stroke:rgb(0%,0%,0%);stroke-opacity:1;stroke-miterlimit:10;" d="M -714.59003 -305.406475 C -702.972861 -274.910288 -688.42825 -230.804479 -694.136764 -237.585392 L -696.774449 -240.63531 C -707.537282 -253.444366 -700.05438 -245.074269 -726.069787 -277.691358 Z M -714.59003 -305.406475 " transform="matrix(1.307669,0,0,1.307669,1803.4196,625.28452)"/>
<path style="fill-rule:nonzero;fill:rgb(0%,0%,0%);fill-opacity:1;stroke-width:2;stroke-linecap:round;stroke-linejoin:round;stroke:rgb(0%,0%,0%);stroke-opacity:1;stroke-miterlimit:10;" d="M -749.847792 -125.634604 C -743.822637 -141.541372 -739.813833 -151.921845 -745.33714 -219.07081 C -751.562437 -297.433674 -757.094707 -373.170801 -760.745048 -410.662979 C -762.725553 -415.597811 -764.930097 -420.732784 -766.340049 -424.51755 L -777.819807 -396.799446 C -776.409855 -393.017668 -774.713133 -388.49208 -772.947705 -383.25853 C -769.297363 -345.763365 -763.762107 -270.032212 -757.53681 -191.663374 C -752.578081 -127.286518 -754.092584 -116.105479 -751.03968 -123.247842 Z M -749.847792 -125.634604 " transform="matrix(1.307669,0,0,1.307669,1803.4196,625.28452)"/>
<path style="fill-rule:nonzero;fill:rgb(0%,0%,0%);fill-opacity:1;stroke-width:2;stroke-linecap:round;stroke-linejoin:round;stroke:rgb(0%,0%,0%);stroke-opacity:1;stroke-miterlimit:10;" d="M -766.340049 -424.51755 C -751.392168 -386.801333 -738.421804 -351.543571 -745.381948 -357.201302 L -747.971839 -359.743398 C -759.287301 -371.778772 -751.804399 -364.185344 -777.819807 -396.799446 Z M -766.340049 -424.51755 " transform="matrix(1.307669,0,0,1.307669,1803.4196,625.28452)"/>
<path style="fill-rule:nonzero;fill:rgb(0%,0%,0%);fill-opacity:1;stroke-width:2;stroke-linecap:round;stroke-linejoin:round;stroke:rgb(0%,0%,0%);stroke-opacity:1;stroke-miterlimit:10;" d="M -745.193756 -148.053438 C -748.62902 -145.60992 -753.047069 -142.751182 -754.185187 -141.604103 C -755.705665 -140.197138 -760.296971 -138.046364 -762.874912 -136.860451 L -768.162233 -106.875072 C -765.584291 -108.060985 -760.912331 -110.650876 -759.39484 -112.057841 C -749.898574 -119.280858 -748.303417 -128.323071 -745.833013 -140.289741 Z M -745.193756 -148.053438 " transform="matrix(1.307669,0,0,1.307669,1803.4196,625.28452)"/>
<path style="fill-rule:nonzero;fill:rgb(0%,0%,0%);fill-opacity:1;stroke-width:2;stroke-linecap:round;stroke-linejoin:round;stroke:rgb(0%,0%,0%);stroke-opacity:1;stroke-miterlimit:10;" d="M -762.874912 -136.860451 C -780.158774 -128.905573 -810.753538 -132.564876 -820.730741 -148.782312 L -825.940394 -119.239037 C -815.978127 -103.042512 -785.446094 -98.917208 -768.162233 -106.875072 Z M -762.874912 -136.860451 " transform="matrix(1.307669,0,0,1.307669,1803.4196,625.28452)"/>
<path style="fill-rule:nonzero;fill:rgb(0%,0%,0%);fill-opacity:1;stroke-width:2;stroke-linecap:round;stroke-linejoin:round;stroke:rgb(0%,0%,0%);stroke-opacity:1;stroke-miterlimit:10;" d="M -820.730741 -148.782312 C -824.733571 -153.815721 -832.064126 -164.88026 -834.761556 -168.279678 C -845.124106 -181.509927 -872.573363 -170.212388 -886.487677 -163.912412 C -914.540346 -150.272918 -974.753064 -117.915714 -977.686481 -114.841899 L -987.866813 -86.236601 C -969.0565 -99.571401 -915.890554 -124.424793 -887.957373 -136.821617 C -870.658576 -144.447904 -849.336039 -151.885999 -839.971209 -138.733416 C -837.27378 -135.336985 -829.943224 -124.269459 -825.940394 -119.239037 Z M -820.730741 -148.782312 " transform="matrix(1.307669,0,0,1.307669,1803.4196,625.28452)"/>
<path style="fill-rule:nonzero;fill:rgb(0%,0%,0%);fill-opacity:1;stroke-width:2;stroke-linecap:round;stroke-linejoin:round;stroke:rgb(0%,0%,0%);stroke-opacity:1;stroke-miterlimit:10;" d="M -978.597573 -114.110038 C -944.191159 -109.7129 -824.467711 -85.836318 -754.316623 -88.136451 L -764.577609 -59.943385 C -834.728697 -57.646239 -954.813594 -81.657244 -989.321573 -86.093216 Z M -978.597573 -114.110038 " transform="matrix(1.307669,0,0,1.307669,1803.4196,625.28452)"/>
<path style="fill-rule:nonzero;fill:rgb(0%,0%,0%);fill-opacity:1;stroke-width:2;stroke-linecap:round;stroke-linejoin:round;stroke:rgb(0%,0%,0%);stroke-opacity:1;stroke-miterlimit:10;" d="M -754.316623 -88.136451 C -808.749136 -85.442009 -820.396176 -79.688688 -845.954544 -70.500102 C -859.343114 -65.684758 -871.064833 -60.409386 -889.803454 -53.183382 L -894.496324 -23.550492 C -876.307346 -30.925855 -864.552767 -36.141483 -851.164197 -40.956828 C -825.605829 -50.145413 -813.259787 -55.785222 -764.577609 -59.943385 Z M -754.316623 -88.136451 " transform="matrix(1.307669,0,0,1.307669,1803.4196,625.28452)"/>
<path style="fill-rule:nonzero;fill:rgb(0%,0%,0%);fill-opacity:1;stroke-width:2.5;stroke-linecap:round;stroke-linejoin:round;stroke:rgb(0%,0%,0%);stroke-opacity:1;stroke-miterlimit:10;" d="M -840.81957 -241.274568 C -833.354591 -237.516687 -821.411819 -229.983003 -813.791507 -225.532095 L -828.23754 -199.666047 C -835.857853 -204.116955 -846.03221 -210.327316 -853.500177 -214.085196 Z M -840.81957 -241.274568 " transform="matrix(1.307669,0,0,1.307669,1803.4196,625.28452)"/>
<path style="fill-rule:nonzero;fill:rgb(0%,0%,0%);fill-opacity:1;stroke-width:2.5;stroke-linecap:round;stroke-linejoin:round;stroke:rgb(0%,0%,0%);stroke-opacity:1;stroke-miterlimit:10;" d="M -798.634522 -249.190612 C -791.166556 -245.435719 -780.257351 -238.487523 -772.634051 -234.039602 L -785.607402 -206.85023 C -793.227715 -211.298151 -805.755975 -219.276926 -813.223941 -223.03182 Z M -798.634522 -249.190612 " transform="matrix(1.307669,0,0,1.307669,1803.4196,625.28452)"/>
<path style="fill-rule:nonzero;fill:rgb(0%,0%,0%);fill-opacity:1;stroke-width:2;stroke-linecap:round;stroke-linejoin:round;stroke:rgb(0%,0%,0%);stroke-opacity:1;stroke-miterlimit:10;" d="M -889.803454 -53.183382 C -930.948961 -37.375191 -984.927422 -19.407264 -1026.057993 -35.496251 L -1031.264659 -5.952976 C -990.137075 10.138998 -935.483511 -6.876017 -894.496324 -23.550492 Z M -889.803454 -53.183382 " transform="matrix(1.307669,0,0,1.307669,1803.4196,625.28452)"/>
<path style="fill-rule:nonzero;fill:rgb(0%,0%,0%);fill-opacity:1;stroke-width:2;stroke-linecap:round;stroke-linejoin:round;stroke:rgb(0%,0%,0%);stroke-opacity:1;stroke-miterlimit:10;" d="M -1026.057993 -35.496251 C -1035.019552 -39.003208 -1046.296181 -44.323387 -1052.984492 -51.880969 C -1059.687738 -59.313089 -1063.436657 -63.991023 -1063.556145 -69.594985 C -1063.765248 -79.413867 -1041.433042 -95.544674 -1036.713287 -95.210109 C -1032.262379 -94.896454 -1028.851012 -85.913985 -1026.461263 -80.88655 C -1024.196975 -76.127962 -1021.974509 -67.261992 -1022.17465 -65.299411 C -1022.416612 -62.969405 -1028.235652 -58.168996 -1034.120409 -53.604575 C -1044.623357 -46.205314 -1056.19273 -39.752992 -1063.376914 -36.43124 L -1068.586567 -6.884978 C -1061.402383 -10.209717 -1049.83301 -16.66204 -1039.330062 -24.061301 C -1026.189429 -32.900386 -1015.151775 -49.852669 -1011.797164 -64.445075 C -1010.626187 -69.538228 -1010.016801 -75.81132 -1009.828608 -82.090386 C -1010.160186 -103.439808 -1021.442789 -127.552377 -1034.230935 -125.108859 C -1049.405842 -121.822954 -1073.960515 -90.415675 -1073.204757 -64.328575 C -1072.159242 -41.808176 -1067.293115 -31.099112 -1058.194145 -22.337694 C -1050.125754 -14.568022 -1040.229205 -9.459933 -1031.264659 -5.952976 Z M -1026.057993 -35.496251 " transform="matrix(1.307669,0,0,1.307669,1803.4196,625.28452)"/>
<path style="fill-rule:nonzero;fill:rgb(0%,0%,0%);fill-opacity:1;stroke-width:2.5;stroke-linecap:round;stroke-linejoin:round;stroke:rgb(0%,0%,0%);stroke-opacity:1;stroke-miterlimit:10;" d="M -1048.330455 -195.716986 C -1040.865476 -191.962093 -1029.66054 -186.483593 -1022.040227 -182.032685 L -1034.717846 -154.843313 C -1042.338159 -159.294221 -1053.543096 -164.772721 -1061.011062 -168.527615 Z M -1048.330455 -195.716986 " transform="matrix(1.307669,0,0,1.307669,1803.4196,625.28452)"/>
<path style="fill-rule:nonzero;fill:rgb(0%,0%,0%);fill-opacity:1;stroke-width:2;stroke-linecap:round;stroke-linejoin:round;stroke:rgb(0%,0%,0%);stroke-opacity:1;stroke-miterlimit:10;" d="M -1063.376914 -36.43124 C -1087.313239 -25.393586 -1126.854627 -16.826335 -1143.869641 -35.104929 L -1149.079295 -5.561655 C -1130.382494 11.811822 -1092.522892 4.152676 -1068.586567 -6.884978 Z M -1063.376914 -36.43124 " transform="matrix(1.307669,0,0,1.307669,1803.4196,625.28452)"/>
<path style="fill-rule:nonzero;fill:rgb(0%,0%,0%);fill-opacity:1;stroke-width:2;stroke-linecap:round;stroke-linejoin:round;stroke:rgb(0%,0%,0%);stroke-opacity:1;stroke-miterlimit:10;" d="M -1143.869641 -35.104929 C -1158.15138 -49.359783 -1160.983233 -73.651584 -1164.753062 -97.566999 C -1168.675238 -122.462212 -1169.747638 -144.686879 -1188.151694 -177.259161 L -1195.915392 -148.283452 C -1179.097532 -112.254995 -1176.193987 -89.331326 -1172.218041 -65.239667 C -1168.394443 -42.091959 -1163.361033 -19.813522 -1149.079295 -5.561655 Z M -1143.869641 -35.104929 " transform="matrix(1.307669,0,0,1.307669,1803.4196,625.28452)"/>
<path style="fill-rule:nonzero;fill:rgb(0%,0%,0%);fill-opacity:1;stroke-width:2;stroke-linecap:round;stroke-linejoin:round;stroke:rgb(0%,0%,0%);stroke-opacity:1;stroke-miterlimit:10;" d="M -1171.360719 -83.685543 C -1171.017192 -85.913985 -1170.458588 -90.481393 -1172.606376 -85.916972 C -1176.453872 -77.74403 -1183.264657 -73.134801 -1191.165765 -68.322443 C -1202.765011 -61.804402 -1226.746144 -53.736012 -1237.586644 -60.10768 C -1243.988184 -63.617625 -1244.26898 -74.213175 -1246.515344 -67.713057 L -1248.077643 -63.196431 C -1251.623433 -52.947394 -1252.86909 -35.76211 -1242.796297 -30.561419 C -1231.955797 -24.18975 -1207.971677 -32.261128 -1196.375419 -38.779169 C -1188.47431 -43.591526 -1181.944321 -48.260499 -1178.476197 -56.514095 C -1175.151458 -63.411509 -1173.200826 -73.143762 -1172.068682 -79.249572 Z M -1171.360719 -83.685543 " transform="matrix(1.307669,0,0,1.307669,1803.4196,625.28452)"/>
<path style="fill-rule:nonzero;fill:rgb(0%,0%,0%);fill-opacity:1;stroke-width:2;stroke-linecap:round;stroke-linejoin:round;stroke:rgb(0%,0%,0%);stroke-opacity:1;stroke-miterlimit:10;" d="M -1246.515344 -67.713057 C -1246.53028 -67.668249 -1246.545216 -67.626429 -1246.560152 -67.581621 L -1247.937245 -63.593727 C -1247.98504 -63.462291 -1248.029848 -63.330855 -1248.077643 -63.196431 Z M -1246.515344 -67.713057 " transform="matrix(1.307669,0,0,1.307669,1803.4196,625.28452)"/>
<path style="fill-rule:nonzero;fill:rgb(0%,0%,0%);fill-opacity:1;stroke-width:2;stroke-linecap:round;stroke-linejoin:round;stroke:rgb(0%,0%,0%);stroke-opacity:1;stroke-miterlimit:10;" d="M -1248.857298 -46.521956 C -1249.920737 -43.301769 -1250.843777 -52.140854 -1250.676495 -55.301297 C -1247.665411 -79.207751 -1226.459374 -101.913356 -1211.147056 -113.267651 C -1186.553549 -133.467007 -1174.939368 -138.730429 -1163.698585 -152.178743 C -1154.886385 -161.283687 -1146.289262 -182.821302 -1148.117421 -171.14439 L -1148.879153 -166.795047 C -1151.681134 -147.709912 -1159.426909 -138.787186 -1174.44947 -124.170882 C -1187.68868 -111.923418 -1198.693475 -106.032686 -1221.888979 -85.256804 C -1231.9319 -75.536499 -1239.211673 -64.409229 -1244.212223 -55.895747 C -1245.732701 -52.821932 -1247.605667 -50.53076 -1248.364413 -48.272447 Z M -1248.857298 -46.521956 " transform="matrix(1.307669,0,0,1.307669,1803.4196,625.28452)"/>
<path style="fill-rule:nonzero;fill:rgb(0%,0%,0%);fill-opacity:1;stroke-width:2.5;stroke-linecap:round;stroke-linejoin:round;stroke:rgb(0%,0%,0%);stroke-opacity:1;stroke-miterlimit:10;" d="M -1225.037473 -244.103433 C -1217.569507 -240.34854 -1205.629722 -232.814856 -1198.00941 -228.363948 L -1212.452456 -202.4979 C -1220.072769 -206.948808 -1230.247126 -213.159168 -1237.715093 -216.917049 Z M -1225.037473 -244.103433 " transform="matrix(1.307669,0,0,1.307669,1803.4196,625.28452)"/>
<path style="fill-rule:nonzero;fill:rgb(0%,0%,0%);fill-opacity:1;stroke-width:2.5;stroke-linecap:round;stroke-linejoin:round;stroke:rgb(0%,0%,0%);stroke-opacity:1;stroke-miterlimit:10;" d="M -1182.849438 -252.022465 C -1175.381472 -248.267571 -1164.472267 -241.319376 -1156.851954 -236.871455 L -1169.825305 -209.682083 C -1177.445618 -214.130004 -1189.973878 -222.108779 -1197.438857 -225.863673 Z M -1182.849438 -252.022465 " transform="matrix(1.307669,0,0,1.307669,1803.4196,625.28452)"/>
<path style="fill-rule:nonzero;fill:rgb(0%,0%,0%);fill-opacity:1;stroke-width:2;stroke-linecap:round;stroke-linejoin:round;stroke:rgb(0%,0%,0%);stroke-opacity:1;stroke-miterlimit:10;" d="M -829.659441 -302.266942 C -833.548758 -304.746307 -837.109484 -307.297364 -842.384856 -310.879001 C -850.163489 -315.990077 -861.801568 -322.266156 -855.074424 -336.622574 C -851.209005 -344.870196 -832.978205 -357.051942 -827.192025 -346.172609 C -823.900146 -337.960834 -825.847791 -327.419052 -834.202952 -312.940159 C -837.760691 -306.777594 -844.006898 -299.450025 -848.278575 -294.706373 C -866.040386 -274.984968 -873.762263 -271.101625 -884.656532 -264.559687 C -890.959496 -261.175204 -911.759275 -249.516215 -920.571475 -245.677681 L -925.401756 -243.568727 C -934.679957 -239.506153 -915.454425 -251.075527 -910.182041 -254.940946 C -891.356791 -267.573758 -874.374636 -278.330616 -848.696781 -302.697097 C -844.24886 -306.915004 -839.349874 -313.376289 -836.452303 -318.502301 C -833.527848 -326.089754 -833.605515 -332.344923 -836.619586 -336.028124 C -838.764386 -338.653861 -845.32126 -337.898103 -848.34728 -334.107363 C -847.651266 -330.749765 -843.221268 -327.544514 -835.385878 -323.003991 C -831.684754 -321.035435 -827.183064 -317.919799 -822.869566 -314.511419 Z M -829.659441 -302.266942 " transform="matrix(1.307669,0,0,1.307669,1803.4196,625.28452)"/>
<path style="fill-rule:nonzero;fill:rgb(0%,0%,0%);fill-opacity:1;stroke-width:2;stroke-linecap:round;stroke-linejoin:round;stroke:rgb(0%,0%,0%);stroke-opacity:1;stroke-miterlimit:10;" d="M -920.571475 -245.677681 C -920.879156 -245.543257 -921.1719 -245.417795 -921.449708 -245.304282 L -925.085114 -243.709125 C -925.192653 -243.658343 -925.300192 -243.613535 -925.401756 -243.568727 Z M -920.571475 -245.677681 " transform="matrix(1.307669,0,0,1.307669,1803.4196,625.28452)"/>
<path style="fill-rule:nonzero;fill:rgb(0%,0%,0%);fill-opacity:1;stroke-width:2;stroke-linecap:round;stroke-linejoin:round;stroke:rgb(0%,0%,0%);stroke-opacity:1;stroke-miterlimit:10;" d="M -932.051233 -214.037401 C -938.163017 -223.228974 -942.569117 -225.039209 -945.890868 -222.36269 C -954.870351 -215.127724 -955.924828 -175.105399 -961.376443 -159.560081 L -957.272049 -162.935602 C -951.820434 -178.483907 -953.66054 -204.669584 -947.157435 -209.723904 C -944.75275 -211.593883 -941.20696 -210.575252 -935.72846 -205.054931 Z M -932.051233 -214.037401 " transform="matrix(1.307669,0,0,1.307669,1803.4196,625.28452)"/>
<path style="fill-rule:nonzero;fill:rgb(0%,0%,0%);fill-opacity:1;stroke-width:2;stroke-linecap:round;stroke-linejoin:round;stroke:rgb(0%,0%,0%);stroke-opacity:1;stroke-miterlimit:10;" d="M -961.376443 -159.560081 C -966.149967 -183.914612 -975.446092 -204.131891 -989.880177 -207.393898 C -990.37605 -207.131026 -990.776333 -206.718794 -991.054141 -206.202011 L -986.167104 -215.318904 C -985.958001 -215.707238 -985.644346 -216.020893 -985.22614 -216.241945 C -965.077567 -213.565426 -957.412447 -177.109802 -957.272049 -162.935602 Z M -961.376443 -159.560081 " transform="matrix(1.307669,0,0,1.307669,1803.4196,625.28452)"/>
<path style="fill-rule:nonzero;fill:rgb(0%,0%,0%);fill-opacity:1;stroke-width:2;stroke-linecap:round;stroke-linejoin:round;stroke:rgb(0%,0%,0%);stroke-opacity:1;stroke-miterlimit:10;" d="M -991.054141 -206.202011 C -992.61644 -203.298466 -990.316306 -197.06122 -979.589319 -195.014997 L -972.841265 -204.517238 C -983.869958 -206.620217 -987.589005 -212.660308 -986.167104 -215.318904 Z M -991.054141 -206.202011 " transform="matrix(1.307669,0,0,1.307669,1803.4196,625.28452)"/>
<path style="fill-rule:nonzero;fill:rgb(0%,0%,0%);fill-opacity:1;stroke-width:2;stroke-linecap:round;stroke-linejoin:round;stroke:rgb(0%,0%,0%);stroke-opacity:1;stroke-miterlimit:10;" d="M -925.330064 -306.879158 C -948.821298 -298.120727 -1094.852898 -248.578239 -1118.436735 -239.98709 L -1120.172291 -230.141324 C -1096.588453 -238.729485 -950.559841 -288.27496 -927.065619 -297.030404 Z M -925.330064 -306.879158 " transform="matrix(1.307669,0,0,1.307669,1803.4196,625.28452)"/>
<path style="fill-rule:nonzero;fill:rgb(0%,0%,0%);fill-opacity:1;stroke-width:2;stroke-linecap:round;stroke-linejoin:round;stroke:rgb(0%,0%,0%);stroke-opacity:1;stroke-miterlimit:10;" d="M -1204.401989 -279.662902 C -1208.291306 -282.142266 -1211.852032 -284.693324 -1217.127403 -288.27496 C -1224.906037 -293.386036 -1236.547103 -299.662115 -1229.816972 -314.018534 C -1225.951552 -322.266156 -1207.720753 -334.447902 -1201.934573 -323.568569 C -1198.64568 -315.356793 -1200.590339 -304.815012 -1208.948487 -290.333132 C -1212.503239 -284.170566 -1218.752433 -276.842998 -1223.021122 -272.102333 C -1240.782933 -252.380927 -1248.50481 -248.494598 -1259.39908 -241.955646 C -1265.702043 -238.571164 -1286.50481 -226.912175 -1295.31701 -223.07364 L -1300.144304 -220.964687 C -1309.425492 -216.902113 -1290.19996 -228.471486 -1284.924588 -232.336906 C -1266.099339 -244.969717 -1249.120171 -255.726576 -1223.439328 -280.093056 C -1218.994395 -284.310964 -1214.095409 -290.769261 -1211.194851 -295.89826 C -1208.270395 -303.485714 -1208.351049 -309.740883 -1211.362133 -313.424084 C -1213.506933 -316.04982 -1220.066795 -315.294062 -1223.089828 -311.503323 C -1222.3968 -308.145725 -1217.963816 -304.937487 -1210.128425 -300.396963 C -1206.427301 -298.431394 -1201.928598 -295.315759 -1197.615101 -291.907379 Z M -1204.401989 -279.662902 " transform="matrix(1.307669,0,0,1.307669,1803.4196,625.28452)"/>
<path style="fill-rule:nonzero;fill:rgb(0%,0%,0%);fill-opacity:1;stroke-width:2;stroke-linecap:round;stroke-linejoin:round;stroke:rgb(0%,0%,0%);stroke-opacity:1;stroke-miterlimit:10;" d="M -1295.31701 -223.07364 C -1295.62469 -222.939217 -1295.917435 -222.813755 -1296.195243 -222.700242 L -1299.827662 -221.105084 C -1299.938188 -221.054302 -1300.042739 -221.009494 -1300.144304 -220.964687 Z M -1295.31701 -223.07364 " transform="matrix(1.307669,0,0,1.307669,1803.4196,625.28452)"/>
</g>
</svg>
